<mxfile host="app.diagrams.net" modified="2024-05-27T07:04:10.664Z" agent="Mozilla/5.0 (Windows NT 10.0; Win64; x64) AppleWebKit/537.36 (KHTML, like Gecko) Chrome/125.0.0.0 Safari/537.36" etag="x-JG1cH42qef2gA13147" version="24.4.7" type="device">
  <diagram name="Сторінка-1" id="QsgMZq_RuveGjiMUTofu">
    <mxGraphModel dx="934" dy="525" grid="1" gridSize="10" guides="1" tooltips="1" connect="1" arrows="1" fold="1" page="1" pageScale="1" pageWidth="827" pageHeight="1169" math="0" shadow="0">
      <root>
        <mxCell id="0" />
        <mxCell id="1" parent="0" />
        <mxCell id="2yQfBD57WbvLfq5PAigr-3" value="Development" style="shape=step;perimeter=stepPerimeter;whiteSpace=wrap;html=1;fixedSize=1;fillColor=#DCD7C3;" vertex="1" parent="1">
          <mxGeometry x="168" y="200" width="130" height="60" as="geometry" />
        </mxCell>
        <mxCell id="2yQfBD57WbvLfq5PAigr-4" value="Build" style="shape=step;perimeter=stepPerimeter;whiteSpace=wrap;html=1;fixedSize=1;fillColor=#DCD7C3;" vertex="1" parent="1">
          <mxGeometry x="288" y="200" width="130" height="60" as="geometry" />
        </mxCell>
        <mxCell id="2yQfBD57WbvLfq5PAigr-5" value="Testing&lt;span style=&quot;color: rgba(0, 0, 0, 0); font-family: monospace; font-size: 0px; text-align: start; text-wrap: nowrap;&quot;&gt;%3CmxGraphModel%3E%3Croot%3E%3CmxCell%20id%3D%220%22%2F%3E%3CmxCell%20id%3D%221%22%20parent%3D%220%22%2F%3E%3CmxCell%20id%3D%222%22%20value%3D%22Development%22%20style%3D%22shape%3Dstep%3Bperimeter%3DstepPerimeter%3BwhiteSpace%3Dwrap%3Bhtml%3D1%3BfixedSize%3D1%3B%22%20vertex%3D%221%22%20parent%3D%221%22%3E%3CmxGeometry%20x%3D%22190%22%20y%3D%22200%22%20width%3D%22130%22%20height%3D%2260%22%20as%3D%22geometry%22%2F%3E%3C%2FmxCell%3E%3C%2Froot%3E%3C%2FmxGraphModel%3E&lt;/span&gt;" style="shape=step;perimeter=stepPerimeter;whiteSpace=wrap;html=1;fixedSize=1;fillColor=#DCD7C3;" vertex="1" parent="1">
          <mxGeometry x="408" y="200" width="130" height="60" as="geometry" />
        </mxCell>
        <mxCell id="2yQfBD57WbvLfq5PAigr-6" value="&lt;font color=&quot;#dcd7c3&quot;&gt;Deploy&lt;/font&gt;" style="shape=step;perimeter=stepPerimeter;whiteSpace=wrap;html=1;fixedSize=1;fillColor=#4E4634;" vertex="1" parent="1">
          <mxGeometry x="528" y="200" width="130" height="60" as="geometry" />
        </mxCell>
        <mxCell id="2yQfBD57WbvLfq5PAigr-7" value="" style="shape=curlyBracket;whiteSpace=wrap;html=1;rounded=1;flipH=1;labelPosition=right;verticalLabelPosition=middle;align=left;verticalAlign=middle;rotation=-90;" vertex="1" parent="1">
          <mxGeometry x="336.61" y="-7.04" width="20" height="374.06" as="geometry" />
        </mxCell>
        <mxCell id="2yQfBD57WbvLfq5PAigr-8" value="" style="shape=curlyBracket;whiteSpace=wrap;html=1;rounded=1;flipH=1;labelPosition=right;verticalLabelPosition=middle;align=left;verticalAlign=middle;rotation=-90;" vertex="1" parent="1">
          <mxGeometry x="584.26" y="121.23" width="20" height="117.51" as="geometry" />
        </mxCell>
        <mxCell id="2yQfBD57WbvLfq5PAigr-10" value="" style="shape=curlyBracket;whiteSpace=wrap;html=1;rounded=1;flipH=1;labelPosition=right;verticalLabelPosition=middle;align=left;verticalAlign=middle;rotation=90;" vertex="1" parent="1">
          <mxGeometry x="399.97" y="26.68" width="20" height="500" as="geometry" />
        </mxCell>
        <mxCell id="2yQfBD57WbvLfq5PAigr-11" value="&lt;b&gt;&lt;font color=&quot;#4e4634&quot;&gt;CI&lt;/font&gt;&lt;/b&gt;" style="text;html=1;align=center;verticalAlign=middle;whiteSpace=wrap;rounded=0;" vertex="1" parent="1">
          <mxGeometry x="316.61" y="140" width="60" height="30" as="geometry" />
        </mxCell>
        <mxCell id="2yQfBD57WbvLfq5PAigr-13" value="&lt;b&gt;&lt;font color=&quot;#4e4634&quot;&gt;CD&lt;/font&gt;&lt;/b&gt;" style="text;html=1;align=center;verticalAlign=middle;whiteSpace=wrap;rounded=0;" vertex="1" parent="1">
          <mxGeometry x="564.26" y="140" width="60" height="30" as="geometry" />
        </mxCell>
        <mxCell id="2yQfBD57WbvLfq5PAigr-14" value="&lt;b&gt;&lt;font color=&quot;#4e4634&quot;&gt;Continuous Monitoring&lt;/font&gt;&lt;/b&gt;" style="text;html=1;align=center;verticalAlign=middle;whiteSpace=wrap;rounded=0;" vertex="1" parent="1">
          <mxGeometry x="333.28000000000003" y="290" width="153.39" height="30" as="geometry" />
        </mxCell>
      </root>
    </mxGraphModel>
  </diagram>
</mxfile>
